<?xml version="1.0" standalone="no"?><!DOCTYPE svg PUBLIC "-//W3C//DTD SVG 1.1//EN" "http://www.w3.org/Graphics/SVG/1.1/DTD/svg11.dtd"><svg t="1775978887393" class="icon" viewBox="0 0 1024 1024" version="1.1" xmlns="http://www.w3.org/2000/svg" p-id="1664" xmlns:xlink="http://www.w3.org/1999/xlink" width="200" height="200"><path d="M679.466667 278.613333a234.624 234.624 0 1 1-141.354667 399.274667 42.666667 42.666667 0 1 1 60.288-60.330667 149.333333 149.333333 0 1 0 89.941333-254.08c-42.709333 4.48-68.266667 22.656-87.637333 48.768-21.290667 28.629333-35.242667 66.688-51.072 112.426667-14.848 42.88-31.744 93.866667-60.16 134.826667-30.208 43.648-74.069333 77.141333-140.416 85.333333a234.624 234.624 0 1 1 136.874667-398.805333 42.666667 42.666667 0 1 1-60.330667 60.373333 149.333333 149.333333 0 1 0-87.082667 253.781333c38.826667-4.821333 62.293333-22.613333 80.810667-49.322666 20.352-29.354667 33.621333-67.84 49.664-114.133334 15.061333-43.434667 32.768-94.421333 63.232-135.424 32.341333-43.52 78.72-75.52 147.2-82.688z" p-id="1665" fill="#e6e6e6"></path></svg>